<svg width="160" height="160" viewBox="0 0 160 160" fill="none" xmlns="http://www.w3.org/2000/svg" role="img" aria-label="OpenEyes Technologies">
  <circle cx="80" cy="80" r="75" fill="#1f5da8" stroke="#a8d600" stroke-width="5"/>
  <circle cx="80" cy="80" r="49" fill="#ffffff" stroke="#a8d600" stroke-width="3"/>
  <path d="M37 84C47 70 61 61 80 61C99 61 113 70 123 84C112 96 98 103 80 103C62 103 48 96 37 84Z" fill="#dbe8f5"/>
  <path d="M38 84C51 72 63 68 80 68C97 68 109 72 122 84C109 88 97 89 80 89C63 89 51 88 38 84Z" fill="#0b6f9d" fill-opacity=".78"/>
  <circle cx="80" cy="84" r="22" fill="#0b6f9d"/>
  <circle cx="80" cy="84" r="7" fill="#ffffff"/>
  <path d="M35 84C48 64 62 54 84 54C99 54 111 59 124 70" stroke="#00517e" stroke-width="4" stroke-linecap="round"/>
  <path d="M51 70C43 76 37 83 31 91" stroke="#00517e" stroke-width="3" stroke-linecap="round"/>
  <path d="M58 75C50 82 45 88 41 96" stroke="#00517e" stroke-width="3" stroke-linecap="round"/>
  <path d="M47 34C58 27 69 24 80 24C91 24 102 27 113 34" stroke="#ffffff" stroke-width="7" stroke-linecap="round"/>
  <path d="M45 126C56 133 68 136 80 136C92 136 104 133 115 126" stroke="#ffffff" stroke-width="7" stroke-linecap="round"/>
  <text x="80" y="31" text-anchor="middle" fill="#ffffff" font-family="Inter, Arial, sans-serif" font-size="15" font-weight="800" letter-spacing="1">OPENEYES</text>
  <text x="80" y="137" text-anchor="middle" fill="#ffffff" font-family="Inter, Arial, sans-serif" font-size="11" font-weight="800" letter-spacing=".5">TECHNOLOGIES</text>
  <circle cx="25" cy="80" r="3.5" fill="#a8d600"/>
  <circle cx="135" cy="80" r="3.5" fill="#a8d600"/>
</svg>
